<?xml version="1.0" encoding="UTF-8"?>
<svg id="Layer_1" xmlns="http://www.w3.org/2000/svg" version="1.1" viewBox="0 0 800 800">
  <!-- Generator: Adobe Illustrator 29.2.1, SVG Export Plug-In . SVG Version: 2.1.0 Build 116)  -->
  <defs>
    <style>
      .st0 {
        fill: #fff;
        fill-rule: evenodd;
      }
    </style>
  </defs>
  <path class="st0" d="M373.3,109.3h-78.7c-43.4,0-78.7,35.2-78.7,78.7s35.2,78.7,78.7,78.7h78.7V109.3ZM373.3,56h132c72.9,0,132,59.1,132,132s-20.6,81.2-52.4,105.3c31.9,24.1,52.4,62.3,52.4,105.3,0,72.9-59.1,132-132,132s-56.7-9.7-78.7-26v104.7c0,72.9-59.1,132-132,132s-132-59.1-132-132,20.6-81.2,52.4-105.3c-31.9-24.1-52.4-62.3-52.4-105.3s20.6-81.2,52.4-105.3c-31.9-24.1-52.4-62.3-52.4-105.3,0-72.9,59.1-132,132-132h78.7ZM426.7,109.3v157.3h78.7c43.4,0,78.7-35.2,78.7-78.7s-35.2-78.7-78.7-78.7h-78.7ZM294.7,477.3h78.7v-157.3h-78.7c-43.4,0-78.7,35.2-78.7,78.7s35.1,78.5,78.4,78.7h.3ZM216,609.3c0-43.3,35.1-78.5,78.4-78.7h.3s78.7,0,78.7,0v78.7c0,43.4-35.2,78.7-78.7,78.7s-78.7-35.2-78.7-78.7ZM426.7,398.5c0-43.4,35.3-78.5,78.7-78.5s78.7,35.2,78.7,78.7-35.2,78.7-78.7,78.7-78.6-35.1-78.7-78.5v-.3Z"/>
</svg>