<?xml version="1.0" encoding="UTF-8"?>
<svg id="_x32_" xmlns="http://www.w3.org/2000/svg" xmlns:xlink="http://www.w3.org/1999/xlink" version="1.1" viewBox="0 0 800 800">
  <!-- Generator: Adobe Illustrator 29.2.1, SVG Export Plug-In . SVG Version: 2.1.0 Build 116)  -->
  <defs>
    <style>
      .st0 {
        fill: #7c7a7a;
      }
    </style>
  </defs>
  <path class="st0" d="M510.2,268.3c-24.4-4.1-87.4-3.8-129.2,11.4-41.8,15.2-117.8,62.7-140.6,70.3-22.8,7.6-24.7,38,26.6,43.7,51.3,5.7,96.9-26.6,108.3-32.3,11.4-5.7,121.6,11.4,121.6,11.4l34.7,8.5,79.9,108.1c14-12.2,41.8-38,48.8-57.7,2.6-7.2,6.4-13.7,10.6-19.6l-113.3-156.2c-14.5,8.2-31.9,15-47.4,12.4Z"/>
  <path class="st0" d="M510.2,397.1l-16.8-1.7c-22-3.4-84.4-12.3-107.8-12.3s-1.9,0-2.5,0c-.9.5-2,1.2-3.1,1.8-16.6,9.7-55.5,32.3-100.8,32.3s-9.9-.3-14.8-.8c-7.3-.8-13.8-2.1-19.5-3.7,5.4,2.4,10.4,5.8,14.7,10.1,6.7,6.8,10.9,15.2,12.5,24,3.9-1,7.9-1.6,12.1-1.6,12.7,0,24.5,5,33.4,14,8.7,8.9,13.5,20.7,13.3,33.2,0,.1,0,.2,0,.4,12.6,0,24.4,5,33.3,14,8.7,8.9,13.5,20.7,13.3,33.2,0,4.3-.7,8.5-1.9,12.5,9,1.9,17.2,6.3,23.7,13,18,18.4,17.7,48.1-.7,66.1l-9.2,9h.1c15.5-1.1,28.5-10.7,32.2-25.1,6.3,5,14.3,8,22.9,8,20.5,0,37.1-16.6,37.1-37.1s-.2-4.2-.6-6.3c6.5,5.7,15,9.1,24.3,9.1,20.5,0,37.1-16.6,37.1-37.1,4.4,1.8,9.2,2.9,14.2,2.9,20.5,0,37.1-16.6,37.1-37.1s-7.6-25.7-25.7-46.5l-57.9-74.6Z"/>
  <path class="st0" d="M243.3,438.8c-9.2-9.4-24.4-9.6-33.8-.4l-34.2,33.5c-9.4,9.2-9.6,24.4-.4,33.8,9.2,9.4,24.4,9.6,33.8.4l34.2-33.5c9.4-9.2,9.6-24.4.4-33.8Z"/>
  <path class="st0" d="M301.3,475.2c-9.2-9.5-24.4-9.6-33.8-.4l-45.6,44.6c-9.5,9.2-9.6,24.4-.4,33.8,9.2,9.5,24.4,9.6,33.8.4l45.6-44.6c9.4-9.2,9.6-24.4.4-33.8Z"/>
  <path class="st0" d="M347.9,522.8c-9.2-9.4-24.4-9.6-33.8-.4l-45.6,44.6c-9.4,9.2-9.6,24.4-.4,33.8,9.2,9.4,24.4,9.6,33.8.4l45.6-44.6c9.4-9.2,9.6-24.4.4-33.8Z"/>
  <path class="st0" d="M383.1,581.6c-9.2-9.4-24.4-9.6-33.8-.4l-26.6,26c-9.4,9.2-9.6,24.4-.4,33.8,9.2,9.4,24.4,9.6,33.8.4l26.6-26c9.4-9.2,9.6-24.4.4-33.8Z"/>
  <path class="st0" d="M797.8,367.2l-152.8-210.7c-3.7-5.1-10.8-6.2-15.9-2.5l-67.7,49.1c-5.1,3.7-6.2,10.8-2.5,15.9l152.8,210.7c3.7,5.1,10.8,6.2,15.9,2.5l67.7-49.1c5.1-3.7,6.2-10.8,2.5-15.9ZM745.8,386.1c-8.5,6.2-20.4,4.3-26.5-4.2-6.2-8.5-4.3-20.4,4.2-26.5,8.5-6.2,20.4-4.3,26.5,4.2,6.2,8.5,4.3,20.4-4.2,26.5Z"/>
  <path class="st0" d="M226.2,408.8c3.6,0,7.1.5,10.5,1.2-28.7-11-33.5-31.2-34.2-38.3-2-19.1,10.3-36.6,30.7-43.4,8.2-2.7,29.7-14.4,50.4-25.8,22.3-12.2,46.7-25.5,68-35.3-27-2.2-52.2-1.3-65.7,1-14.5,2.4-30.7-3.4-44.6-10.9l-114.2,157.4c3.4,5.1,6.5,10.8,8.7,16.8,3.2,8.9,10.7,19.2,19.2,28.8,1.3-1.7,2.8-3.4,4.3-5l34.2-33.5c8.8-8.6,20.4-13.3,32.7-13.3Z"/>
  <path class="st0" d="M238.6,203l-67.7-49.1c-5.1-3.7-12.2-2.6-15.9,2.5L2.2,367.2c-3.7,5.1-2.6,12.2,2.5,15.9l67.7,49.1c5.1,3.7,12.2,2.6,15.9-2.5l152.8-210.7c3.7-5.1,2.6-12.2-2.5-15.9ZM193.4,226.5c-6.2,8.5-18,10.4-26.5,4.2-8.5-6.2-10.4-18-4.2-26.5,6.2-8.5,18-10.4,26.5-4.2,8.5,6.2,10.4,18,4.2,26.5Z"/>
</svg>