<?xml version="1.0" encoding="utf-8"?>
<!-- Generator: Adobe Illustrator 28.1.0, SVG Export Plug-In . SVG Version: 6.00 Build 0)  -->
<svg version="1.1" id="Layer_1" xmlns="http://www.w3.org/2000/svg" xmlns:xlink="http://www.w3.org/1999/xlink" x="0px" y="0px"
	 viewBox="0 0 594.5 700.1" style="enable-background:new 0 0 594.5 700.1;" xml:space="preserve">
<style type="text/css">
	.st0{fill:none;stroke:#FFFFFF;stroke-width:3;stroke-miterlimit:10;}
</style>
<path class="st0" d="M280.3,151.4c-17.7,0.8-26.6,1.4-33.8,2.2c-38.1,4.1-64.9,16.5-64.9,16.5c-18.5,21.6-31.9,41.2-31.9,41.2
	s-3.1-2.1-10.3,22.6s-8.2,58.7-8.2,58.7c-3.1,13.4-6.2,29.9-6.2,29.9V341c-2.1,25.7,0,59.7,0,59.7c1,27.8,8.2,77.2,8.2,77.2
	l2.5,14.1c4.6,12.8,24.4,52.9,24.4,52.9c11.4,16.3,19.5,30.3,24.8,40.1c7.4,13.7,8.4,17.5,14.3,23.8c12.4,13.2,28.2,17.3,38.5,20.1
	c15.7,4.2,28.3,3.7,35.2,3.3c9.3-0.4,22.5-1.1,37.4-7.8c9.8-4.4,16-9.5,26.8-18.4c10.7-8.8,18.5-17.1,22.3-21.2
	c7.3-7.8,7.1-8.7,16.8-19c8.3-8.9,9.7-9.7,14.5-15.6c2.1-2.6,5.5-7.5,12.3-17.3c7.9-11.4,9.2-13.7,10.6-16.2
	c3.3-6.1,5.2-11,6.7-15.1c0.9-2.4,3.7-10,6.7-22.9c0.9-3.8,1.6-7.1,5-27.4c0.8-4.5,2.1-11.9,3.6-21.5c0.2-1.1,0.3-2,0.4-2.4
	c1.5-9.5,3.4-22.8,4.5-32.4c1.8-15.5,1.1-15.5,3-35.4c0.8-7.9,1-9.3,3.8-33.1c2.5-21.2,3.7-31.9,3.8-33.1c1.1-15.5,2.5-36.2-6-58.7
	c-9.8-25.9-27.6-40.9-34.6-46.6c-17-14-33.6-19.6-46.6-24.1c-14.8-5.1-26.7-6.9-39.9-9c-2-0.3-1.6-0.5-2.6-0.8
	C307.9,150.5,297.1,150.6,280.3,151.4L280.3,151.4z"/>
<path class="st0" d="M437.3,419.6c4.7-5.5,7.6-10.1,9.4-13.4c0.8-1.5,2.3-4.2,4.7-8.3c1.9-3.2,3.1-5.1,3.7-6c4.9-8,3.5-21.2,3-25
	c-1.4-10.5-6.1-24.9-9.7-24.5c-1.3,0.1-4.4,2.3-5.7,27.5"/>
<path class="st0" d="M462.5,329.3c7.5-22.6,9.5-45.6,11.5-69.6c1-5,0-11,0-17c1-4,2-7,3-11c1-9-2-17-1-25c2-13,6-25,6-38
	c0-7-6-12-8-18c-1-3-2-5-2-8c1-8,6-15,4-23c-1-7-10-9-17-9c-1,0-4-1-4-2c1-8,5-16,2-24c-3-9-7-17-13-24c-8-8-14-18-22-26
	c-10-8-20-15-32-19c-10-4-17,5-25,8c-2,1-5,0-7-1c-8-6-16-12-25-15c-16-5-32-8-49-5c-4,1-5,7-9,9c-8,3-16-1-24,0c-1,0-3,0-4,1
	c-6,4-10,9-16,11c-16,4-30,12-45,18l-3,3c-2,3-1,6-1,9c-1,5-6,3-9,5c-2,1-3,2-4,4c-3,7-3,16-10,20c-5,2-10,4-14,7c-1,7,3,13-2,19
	c-4,3-7-2-11-1c-2,1-2,3-2,4c-1,12-5,24-6,36c0,7,1,13,2,20c0,3-1,7-3,10c-8,13-14,27-15,42c-1.2,18.2-3.7,32.1-2,49
	c1.8,17.5,5.9,31.9,9.9,42.7"/>
<path class="st0" d="M125,325.6c-2.4,0.1-9.6,1-14.6,7.1c-4.4,5.3-5,11.9-5.3,16.6c-0.3,3.1,0,6.7,0.4,13.7
	c0.3,5.4,0.8,9.6,0.9,10.4c1.4,11.9,13.7,26.2,18.9,31.9"/>
<path class="st0" d="M381.5,560.2c1.1,5.4,2.4,13.6,2.2,23.6c-0.1,2.5-0.1,3.3-0.1,4.2c0,0.4,0,0.7,0.1,1.1c0.5,5.1,0.4,6.2,0.9,8.9
	c0.2,1,0.3,1.2,0.4,2.1c0.2,1.3,0.3,2.3,0.3,4c0.1,2,0.1,3,0.1,4.8c0,1.5-0.2,5.3-0.5,9.8c-0.3,3.4-0.8,5.7-2.5,13
	c-4.6,19.8-5.7,22.6-7.8,25.7c-2.2,3.3-4.6,5.7-6.3,7.1l0,0c-4,5.7-9.6,10-16.9,12.9c-2.8,1-6.7,2.5-11.6,4.1c0,0-2.5,0.9-4.8,1.5
	c-7.5,2-17.8,3-45.3,3.3c-23,0.3-34.5,0.3-46.6-0.3c-43.2-2.2-51.3-7.9-55.2-11.5c-11.2-10-15.8-25.6-17-29.7
	c-2.6-8.7-2.9-16-3.1-20c-0.2-5.6-0.5-15.2,3.1-26.9c1.5-5,4.4-12.3,9.9-20.2"/>
<path class="st0" d="M383.7,583.8c8.9-1.4,14.8,0.4,18.6,2.3c4.7,2.4,5,4.3,12.7,9.5c5.3,3.6,7,3.7,9.6,5.2c1.8,1,2.9,1.9,3.5,2.4
	c3.3,2.5,6.3,3.2,11.9,5.6c4.7,2,4.4,2.2,9.9,4.7c6.2,2.8,7.7,3,19.2,7.4c7.7,2.9,11.6,4.4,16.3,6.5c6.4,2.8,11.5,5.5,14.5,7.1
	c7,3.7,7.7,4.5,11.5,6.4c2.5,1.2,4.2,1.9,5.6,2.5c4.3,1.8,7.4,3.7,12,6.5c12.8,7.9,26.2,19.2,26.2,19.2c11.8,10,23.2,19.5,35.4,29.8
	"/>
<path class="st0" d="M392.4,584.2c0.3,1.7,0.6,4.2,0.6,7.4c0,2.2-0.1,3.7-0.2,4.8c-0.3,4.3-0.2,6-0.2,12.3c0,2-0.1,7.9-0.5,14.5
	c-0.6,10.4-2.1,17-2.5,18.5c-0.9,4.2-1.9,7.4-2.4,8.9c-0.5,1.4-1.1,3.4-2.2,5.9s-2.8,6-5.3,9.9"/>
<path class="st0" d="M175.1,587.3c-5.8,2.9-11.7,5.8-17.5,8.7c-5.5,4.6-10.2,8-13.6,10.4c-1.2,0.8-2.3,1.6-4.6,3.1
	c-5.1,3.4-10.2,6.8-12.6,8.3c-6.9,4.4-9.4,5.1-17.2,9.5c-9.7,5.4-8.8,6-23.2,15c-4.5,2.8-11.7,7.1-20.7,12
	c-7.8,4.2-13.7,7.1-16.1,8.2c-9.3,4.5-24.3,12-49,25.2"/>
<path class="st0" d="M167,591.6c-2.1,3.7-4.9,9.7-5.9,17.3c-0.6,4.7-0.3,8.5,0.5,15.9c1.5,14.7,4.4,25.6,5.5,29.4
	c2.1,7.6,3.1,11.4,5,15c0.9,1.6,5.6,10,15.7,16.6c8.4,5.5,16.6,7.2,25.5,8.4c17.2,2.3,28,1.4,48.2,1c24.5-0.5,36.9,0.1,59.1-1.5
	c2.8-0.2,13.5-1,27.1-4.4c10.1-2.5,13.7-4,16.2-5.5c8.7-5,13.4-12.5,15.9-17.4"/>
<path class="st0" d="M126.8,313.1c12.7,1.3,22.7,1.1,29.6,0.7c5.5-0.3,10.1-0.9,17.7-0.5c5.7,0.3,7.1,0.8,14.7,1.1
	c7.5,0.3,7.8-0.1,13.3,0.3c5,0.3,5.7,0.7,15.8,2.2c7.8,1.1,8.4,1,18.5,2.5c13.2,1.9,14.4,2.4,15.8,3.3c3.6,2.4,5.5,5.4,10.3,6.3
	c0.8,0.1,2.4,0.1,5.4,0c6-0.2,7.8-0.5,11.4-0.6c2.3-0.1,6.3-0.2,11,0.5c6.7,0.9,7.3,2.3,11.8,2.3c2.5,0,2.8-0.5,10.9-2.5
	c7.7-1.9,11.7-2.9,16.3-3.5c4.2-0.6,7.5-0.9,10.1-1c1.7-0.1,6.2-0.4,12.9-0.4c8.1,0.1,8.4,0.5,17,0.7c7.5,0.1,7.3-0.2,13.9,0
	c6.8,0.2,12.1,0.8,15,1c5,0.5,4.7,0.6,13.9,1.7c7.4,0.9,7.5,0.8,11.8,1.4c5.3,0.7,9.6,1.7,13.2,2.4c2.5,0.5,5.6,1.2,9.4,2.1"/>
<path class="st0" d="M446.6,333c6.9-2.2,13.8-4.4,20.7-6.6"/>
<path class="st0" d="M445.9,343.1c7-2.3,14-4.5,21-6.8c0.1-1.1,0.3-2.4,0.3-3.6c0.1-2.2,0.1-4.3,0-6.2"/>
<path class="st0" d="M446.6,333c-5.5,19.7-5.5,40.7-12.5,60.7c-2,4-5,8-8,9c-28,8-57,2-85,0c-9,0-17-3-24-9c-1.4-1.1-3.4-3-5.3-5.6
	c-5.4-7.5-5.6-15-6.7-24.4c-0.8-6.1-2.1-14.6-5-25c-10-3-22-4-33-2c-1,0-2,1-2,2c-1,9-1,17-3,25c-4,11-12,21-20,29c-16,2-31,3-47,3
	c-17-1-34-2-52-5c-4-1-7-3-9-6c-2.8-9-5.5-20.2-7-33.1c-1.7-14.9-1.3-28-0.3-38.4c-3.6-0.5-7.2-1.1-10.9-1.8
	c-3.9-0.7-7.6-1.4-11.3-2.1c-1.1,3.2-2.3,6.5-3.4,9.8"/>
<path class="st0" d="M101.2,318.5c7.8,2.1,15.6,4.1,23.4,6.2"/>
</svg>
