<?xml version="1.0" encoding="utf-8"?>
<!-- Generator: Adobe Illustrator 28.1.0, SVG Export Plug-In . SVG Version: 6.00 Build 0)  -->
<svg version="1.1"
	 id="svg64" xmlns:sodipodi="http://sodipodi.sourceforge.net/DTD/sodipodi-0.dtd" xmlns:rdf="http://www.w3.org/1999/02/22-rdf-syntax-ns#" xmlns:cc="http://creativecommons.org/ns#" xmlns:svg="http://www.w3.org/2000/svg" xmlns:inkscape="http://www.inkscape.org/namespaces/inkscape" xmlns:dc="http://purl.org/dc/elements/1.1/"
	 xmlns="http://www.w3.org/2000/svg" xmlns:xlink="http://www.w3.org/1999/xlink" x="0px" y="0px" viewBox="0 0 397.3 559.5"
	 style="enable-background:new 0 0 397.3 559.5;" xml:space="preserve">
<style type="text/css">
	.st0{fill:#FFFFFF;}
</style>
<sodipodi:namedview  bordercolor="#666666" borderopacity="1" fit-margin-bottom="0" fit-margin-left="0" fit-margin-right="0" fit-margin-top="0" gridtolerance="10" guidetolerance="10" id="namedview66" inkscape:current-layer="svg64" inkscape:cx="364.99449" inkscape:cy="300.83113" inkscape:pageopacity="0" inkscape:pageshadow="2" inkscape:window-height="1016" inkscape:window-maximized="1" inkscape:window-width="1920" inkscape:window-x="0" inkscape:window-y="27" inkscape:zoom="1.0628712" objecttolerance="10" pagecolor="#ffffff" showgrid="false">
	</sodipodi:namedview>
<path id="path80" inkscape:connector-curvature="0" sodipodi:nodetypes="ccsccccccscccccscscsccsssccscscssccccsccscsscccccccc" class="st0" d="
	M117.4,522.4l-79.3-22.2L20.4,302.9C10.7,194.3,2.8,103.3,2.7,100.5l-0.1-5H200h197.3l0,3c0,4.2-34.7,395.7-35.4,399.1
	c-0.5,2.4-10.1,5.4-80.9,25c-44.2,12.2-81.3,22.2-82.4,22.1C197.6,544.7,161,534.6,117.4,522.4L117.4,522.4z M250.5,445.7
	c27.4-7.6,50.2-14.5,50.7-15.3c0.5-0.8,3.8-34.3,7.3-74.5s6.7-74.1,7.1-75.4c0.6-2.2-4.1-2.3-84.5-2.3h-85.2l3.6-38.3
	c2-21.1,3.7-38.4,3.7-38.5c0.1-0.1,12.6-0.5,27.8-0.9c25-0.7,76.4,1.3,78.1,3c0.6,0.6,4.9,42.2,4.9,47.8c0,2.8,0.4,2.8,25.8,2.8
	h25.8l-0.6-5.7c-0.3-3.1-2.5-27.3-4.9-53.7l-4.3-48l-99.6-0.3c-79.3-0.3-99.6,0-99.7,1.3c0,0.9-0.6,6.8-1.3,13
	c-1.7,15.1-14.7,160.8-14.7,164.8v3.2h84.8h84.8l-0.8,5c-0.4,2.8-1.7,16.7-2.9,31c-1.2,14.3-2.6,26.4-3,26.8
	c-1.2,1.2-51.1,14.5-54.2,14.5c-1.4,0-14.3-3.2-28.6-7.1l-26-7.1l-1-11.2c-0.5-6.2-1.3-14.9-1.8-19.5l-0.8-8.3h-25.2H90.7l0.1,5
	c0.1,9.4,6.2,72.3,7,73.2c1,1,97.9,28.3,100.9,28.4C199.8,459.5,223.1,453.3,250.5,445.7L250.5,445.7z"/>
<path id="path76" inkscape:connector-curvature="0" class="st0" d="M126.7,62V49.3h18h18V24.7V0h12.7H188v37.3v37.3h-30.7h-30.7V62z
	 M200,64.7v-10h16.7c9.2,0,16.7-0.3,16.7-0.8s-7.5-8.9-16.7-18.8L200,17V8.5V0h34.7h34.7v10v10l-16.3,0.4l-16.3,0.4l16.9,18.2
	l16.9,18.2v8.8v8.8h-35.3H200V64.7z"/>
</svg>
