<?xml version="1.0" encoding="UTF-8"?>
<svg id="Layer_1" data-name="Layer 1" xmlns="http://www.w3.org/2000/svg" viewBox="0 0 232.2 468.8">
  <defs>
    <style>
      .cls-1 {
        fill: #fff;
        stroke-width: 0px;
      }
    </style>
  </defs>
  <path class="cls-1" d="M77.95,219.43v190.49c0,36.86-17.76,58.88-42.75,58.88S0,452.35,0,438.56c0-9.88,5.92-15.14,12.48-15.14,6.91,0,11.52,5.25,11.52,11.52,0,5.92-5.25,8.55-5.25,11.84,0,2.95,4.26,8.22,16.45,8.22,15.46,0,26.98-14.14,26.98-42.78v-192.8h-29.95v-13.47h76.67v13.47h-30.94Z"/>
  <path class="cls-1" d="M232.2,192.15c0,37.18-26.98,66.46-74.36,66.46-12.83,0-27.97-1.66-39.81-4.96v94.75h26.98v13.5h-70.08v-13.5h27.32v-207.26h-25.98v-13.47h82.24c50.01,0,73.69,31.24,73.69,64.48ZM216.07,192.47c0-25.98-17.44-51.33-57.57-51.33h-40.48v99.04c11.84,2.95,26.65,4.93,39.49,4.93,35.87,0,58.56-20.73,58.56-52.64Z"/>
</svg>