<?xml version="1.0" encoding="UTF-8"?>
<svg id="Layer_1" xmlns="http://www.w3.org/2000/svg" version="1.1" viewBox="0 0 800 800">
  <!-- Generator: Adobe Illustrator 29.2.1, SVG Export Plug-In . SVG Version: 2.1.0 Build 116)  -->
  <defs>
    <style>
      .st0 {
        fill: #fff;
      }
    </style>
  </defs>
  <path class="st0" d="M641.7,282.4h0c-8-2.7-16-5.3-24.1-7.6,1.3-5.5,2.6-11,3.7-16.5,18.3-88.9,6.3-160.5-34.5-184.1-39.1-22.6-103.1,1-167.8,57.3-6.4,5.6-12.6,11.3-18.7,17.2-4.1-3.9-8.2-7.8-12.5-11.5-67.7-60.3-135.6-85.7-176.4-62-39.1,22.7-50.7,90-34.2,174.3,1.6,8.3,3.5,16.6,5.5,24.9-9.6,2.7-18.9,5.7-27.8,8.8-79.3,27.7-130,71.2-130,116.3s54.4,93.3,137.1,121.6c6.7,2.3,13.5,4.4,20.3,6.4-2.2,8.8-4.2,17.8-5.9,26.8-15.6,82.8-3.4,148.5,35.5,171.1,40.3,23.3,107.8-.6,173.7-58.3,5.2-4.6,10.4-9.4,15.6-14.5,6.6,6.4,13.4,12.5,20.3,18.5,63.7,55,126.7,77.2,165.6,54.6,40.2-23.3,53.3-94,36.3-179.9-1.3-6.6-2.8-13.3-4.5-20.1,4.8-1.4,9.4-2.9,14-4.4,85.9-28.5,141.9-74.7,141.9-121.9,0-45.3-52.4-89.1-133.4-117ZM440.1,155.7c55.4-48.3,107.1-67.4,130.7-53.7h0c25.1,14.5,34.9,73,19.1,149.8-1,5-2.2,10-3.4,15-33-7.5-66.5-12.8-100.3-15.9-19.3-27.8-40.5-54.3-63.4-79.3,5.6-5.4,11.3-10.7,17.2-15.9h0ZM246.5,437.9c6.8,13.1,13.9,26.1,21.3,38.9,7.5,13.1,15.4,25.9,23.5,38.6-23.2-2.5-46.3-6.2-69.1-11.1,6.6-21.4,14.8-43.7,24.3-66.4ZM246.5,362.4c-9.4-22.2-17.3-44-23.8-65,21.4-4.8,44.2-8.7,68-11.7-8,12.4-15.6,25.1-23,37.9s-14.4,25.8-21.2,38.9h0ZM263.5,400.1c9.9-20.6,20.5-40.8,31.9-60.6h0c11.4-19.8,23.5-39.1,36.4-58,22.3-1.7,45.2-2.6,68.3-2.6s46.1.9,68.4,2.6c12.7,18.8,24.8,38.1,36.1,57.8s22.2,39.8,32.3,60.3c-10,20.7-20.8,40.9-32.3,60.8h0c-11.4,19.8-23.3,39.2-35.9,58.2-22.3,1.6-45.3,2.4-68.8,2.4s-46-.7-67.9-2.2c-12.9-18.9-25.2-38.4-36.7-58.3s-22.2-40.1-32-60.6h0ZM532.4,476.6c7.6-13.1,14.8-26.4,21.8-39.8h0c9.5,21.6,17.9,43.7,25.2,66.1-23.1,5.2-46.5,9.2-70,12,7.9-12.6,15.6-25.3,23-38.3ZM553.9,362.4c-6.9-13.2-14.1-26.2-21.6-39.1h0c-7.3-12.7-14.9-25.2-22.8-37.6,23.9,3,46.9,7.1,68.4,12-6.9,21.9-14.9,43.5-24,64.7ZM400.4,194.5h0c15.6,17,30.3,34.9,44.1,53.4-29.5-1.4-59.1-1.4-88.7,0,14.6-19.3,29.5-37.2,44.5-53.4ZM227.6,102.9c25.1-14.6,80.6,6.2,139.1,58.2,3.7,3.3,7.5,6.8,11.2,10.4-23,25-44.3,51.4-63.8,79.2-33.7,3-67.1,8.3-100.1,15.6-1.9-7.7-3.6-15.4-5.2-23.2h0c-14.1-72.2-4.8-126.7,18.8-140.4ZM191,496.4c-6.2-1.8-12.4-3.7-18.5-5.8-36.6-12.5-66.8-28.8-87.5-46.6-18.6-15.9-28-31.8-28-44.7,0-27.4,40.7-62.3,108.6-85.9,8.5-3,17.1-5.7,25.8-8.1,10.1,32.4,22.3,64.1,36.6,94.9-14.4,31.2-26.8,63.4-37,96.2ZM364.7,642.8c-29.1,25.5-58.3,43.6-84,52.7h0c-23.1,8.2-41.5,8.4-52.6,2-23.7-13.7-33.5-66.5-20.1-137.3,1.6-8.3,3.4-16.7,5.5-25,33.3,7.2,67.1,12.1,101.1,14.7,19.7,27.9,41.2,54.6,64.4,79.7-4.7,4.6-9.4,9-14.3,13.2ZM401.3,606.5c-15.2-16.4-30.3-34.6-45.1-54.1,14.4.6,29,.8,43.9.8s30.4-.3,45.3-1c-13.8,18.8-28.5,36.9-44.1,54.3h0ZM595.8,651.2c-4.5,24.1-13.5,40.2-24.6,46.7-23.6,13.7-74.2-4.1-128.7-51.1-6.2-5.4-12.5-11.1-18.9-17.2,22.7-25.2,43.7-52,62.9-80,34.2-2.9,68.1-8.1,101.6-15.7,1.5,6.2,2.9,12.2,4.1,18.2h0c7.5,38,8.6,72.3,3.6,99.2ZM623,490.8h0c-4.1,1.4-8.3,2.7-12.6,4-10.5-32.6-23.2-64.4-38-95.2,14.2-30.4,26.4-61.8,36.5-93.8,7.7,2.2,15.1,4.6,22.3,7.1,69.4,23.9,111.7,59.4,111.7,86.6s-45.7,66.8-120,91.4Z"/>
  <path class="st0" d="M400,466.5c37.1.1,67.3-29.9,67.4-67,.1-37.1-29.9-67.3-67-67.4-37.1-.1-67.3,29.9-67.4,67,0,0,0,.1,0,.2,0,37,29.9,67.1,66.9,67.2,0,0,0,0,0,0Z"/>
</svg>